# xmcd CD database file
#
# Track frame offsets:
#	150
#	25002
#	53850
#	80312
#	117125
#	123675
#	137752
#	160850
#	188400
#	208762
#	226840
#	243650
#	260452
#	274600
#	297825
#
# Disc length: 4242 seconds
#
# Revision: 0
# Processed by: cddbd v1.5.1PL0 Copyright (c) Steve Scherf et al.
# Submitted via: CDex 1.51
#
DISCID=cd10900f
DTITLE=Dream Theater - Winter Rose In The Dream
DYEAR=1900
DGENRE=Heavy Metal
TTITLE0=Caught In A Web-Sutudio Session 1995
TTITLE1=Lifting Shadow Off A Dream-Sutudio Session 1995
TTITLE2=6:00-Sutudio Session 1995
TTITLE3=The Killing Hand-John Arch Audition 1991
TTITLE4=Only A Matter Of Time-John Arch Audition 1991
TTITLE5=Unreleased Song-John Arch Audition 1991
TTITLE6=A Fortune In Lies-John Arch Rehearsal 1991
TTITLE7=Unreleased Song-John Arch Rehearsal 1991
TTITLE8=In My Brain-Winter Rose Demo 1989
TTITLE9=Never Let Me Go-Winter Rose Demo 1989
TTITLE10=I'll Never Fallin' Love Again-Winter Rose Demo 1989
TTITLE11=Take My Love Again-Winter Rose Demo 1989
TTITLE12=Can't Talk To Me-Winter Rose Demo 1989
TTITLE13=Lie (German Edit)
TTITLE14=Status Seeker (Remix)
EXTD=
EXTT0=
EXTT1=
EXTT2=
EXTT3=
EXTT4=
EXTT5=
EXTT6=
EXTT7=
EXTT8=
EXTT9=
EXTT10=
EXTT11=
EXTT12=
EXTT13=
EXTT14=
PLAYORDER=
